<svg width="692" height="799" viewBox="0 0 692 799" fill="none" xmlns="http://www.w3.org/2000/svg">
<path d="M461.298 798.513H402.875V618.199H294.605V798.525H236.262V560.332H461.298V798.513Z" fill="#1B734F"/>
<path d="M352.313 66.5991L288.711 105.296L155.654 186.221L85.4448 228.927C85.5044 229.244 85.5441 229.582 85.6036 229.919C89.2153 252.919 92.2514 275.898 92.2514 298.898C92.2514 299.831 92.2316 300.764 92.2316 301.696L166.43 256.689L352.332 143.893L415.934 105.316L352.313 66.5991Z" fill="#1B734F"/>
<path d="M537.838 179.454L415.914 105.296L352.313 66.5991L288.711 105.296L352.313 143.873L526.924 249.823L600.388 294.373C600.765 270.659 604.238 246.945 608.008 223.231C608.068 222.914 608.108 222.576 608.167 222.219L537.838 179.454Z" fill="#1B734F"/>
<path d="M271.318 426.365C290.662 426.365 306.343 410.684 306.343 391.34C306.343 371.996 290.662 356.315 271.318 356.315C251.974 356.315 236.292 371.996 236.292 391.34C236.292 410.684 251.974 426.365 271.318 426.365Z" fill="#F09330"/>
<path d="M426.39 426.365C445.734 426.365 461.416 410.684 461.416 391.34C461.416 371.996 445.734 356.315 426.39 356.315C407.046 356.315 391.365 371.996 391.365 391.34C391.365 410.684 407.046 426.365 426.39 426.365Z" fill="#F09330"/>
<path d="M241.442 55.5262H261.763V0.457947H238.049C141.982 0.457947 74.1733 39.5117 74.1733 131.63C74.1733 159.67 78.7176 186.718 83.2223 214.758C83.9962 219.481 84.7305 224.184 85.4449 228.907C85.5044 229.225 85.5441 229.562 85.6037 229.899C89.2154 252.899 92.2515 275.879 92.2515 298.878C92.2515 299.811 92.2317 300.744 92.2317 301.676V302.569C91.3784 336.583 78.1421 372.958 0.729004 372.958V424.037C80.9402 424.037 92.2515 467.08 92.2515 498.117C92.2515 524.272 88.0644 550.407 83.6788 576.522C83.52 577.415 83.3811 578.328 83.2223 579.221C79.1939 603.391 75.1258 628.375 74.332 652.724C74.2328 655.602 74.1733 658.459 74.1733 661.337C74.1733 759.388 140.057 796.279 229.535 798.422C232.353 798.502 235.191 798.521 238.068 798.521H261.783V743.453H241.462C178.178 743.453 152.162 712.416 152.162 656.336C152.162 651.296 152.321 646.295 152.579 641.314C153.611 622.541 156.508 604.006 160.06 584.261C164.565 560.21 167.978 535.186 167.978 508.138C169.129 444.06 137.477 410.027 86.6157 399.013V396.989C137.457 384.983 169.109 352.935 167.978 288.837C167.978 278.002 167.422 267.643 166.49 257.503C166.47 257.205 166.43 256.947 166.41 256.649C165.001 241.806 162.719 227.439 160.06 212.734C158.472 204.201 156.984 195.687 155.793 187.214C155.734 186.876 155.694 186.559 155.654 186.202C153.511 171.12 152.142 156.197 152.142 141.651C152.162 87.575 174.745 55.5262 241.442 55.5262Z" fill="#1B734F"/>
<path d="M600.348 298.898C600.348 297.708 600.348 296.477 600.368 295.286C600.368 294.989 600.368 294.671 600.388 294.393C600.765 270.679 604.238 246.965 608.008 223.251C608.068 222.934 608.107 222.596 608.167 222.239C608.226 221.981 608.246 221.743 608.306 221.465C608.643 219.243 609.02 217 609.397 214.778C613.168 191.46 616.918 168.818 618.049 145.719C618.307 141.056 618.426 136.372 618.426 131.649C618.426 42.5082 554.904 3.05747 463.739 0.57692C460.703 0.517387 457.627 0.477722 454.551 0.477722H430.797V55.546H451.138C517.835 55.546 540.438 87.5947 540.438 141.691C540.438 146.85 540.259 152.049 539.942 157.308C539.525 164.631 538.771 172.053 537.838 179.474C537.779 179.812 537.759 180.129 537.699 180.487C536.35 191.183 534.544 201.998 532.52 212.773C530.297 225.236 528.293 237.42 526.924 249.843C526.864 250.101 526.844 250.398 526.824 250.656C525.435 262.98 524.622 275.561 524.622 288.857C523.51 352.954 555.162 385.003 606.004 397.009V399.033C555.162 410.047 523.51 444.1 524.622 508.158C524.622 535.206 528.015 560.229 532.54 584.281C537.044 609.285 540.458 632.344 540.458 656.376C540.458 712.456 514.461 743.493 451.158 743.493H430.797V798.561H454.531C548.316 798.561 618.406 762.504 618.406 661.357C618.406 634.328 613.902 606.288 609.377 579.26C604.833 552.232 600.328 525.204 600.328 498.136C600.328 467.099 611.62 424.057 691.89 424.057V372.977C611.62 372.977 600.348 333.924 600.348 298.898Z" fill="#1B734F"/>
</svg>
